HIERARCHY
ROOT Hips
{
	OFFSET 0.000000 8.830580 0.000000
	CHANNELS 6 Xposition Yposition Zposition Zrotation Yrotation Xrotation 
	JOINT Spine
	{
		OFFSET 0.000000 0.010000 0.000000
		CHANNELS 3 Zrotation Yrotation Xrotation
		JOINT Spine1
		{
			OFFSET 0.000000 2.459130 0.000000
			CHANNELS 3 Zrotation Yrotation Xrotation
			JOINT Neck
			{
				OFFSET 0.000000 2.484630 0.000000
				CHANNELS 3 Zrotation Yrotation Xrotation
				JOINT Head_virtual
				{
					OFFSET 0.000000 0.000000 0.000000
					CHANNELS 3 Zrotation Yrotation Xrotation
					JOINT Head
					{
						OFFSET 0.000000 0.927525 0.000000
						CHANNELS 3 Zrotation Yrotation Xrotation
						End Site
						{
							OFFSET 0.000000 0.000000 0.000000
						}
					}
				}
				JOINT LeftUpArm_virtual
				{
					OFFSET 0.000000 0.000000 0.000000
					CHANNELS 3 Zrotation Yrotation Xrotation
					JOINT LeftUpArm
					{
						OFFSET 1.248820 0.000000 0.000000
						CHANNELS 3 Zrotation Yrotation Xrotation
						JOINT LeftForeArm
						{
							OFFSET 2.597580 0.000000 0.000000
							CHANNELS 3 Zrotation Yrotation Xrotation
							JOINT LeftHand
							{
								OFFSET 2.455420 0.000000 0.000000
								CHANNELS 3 Zrotation Yrotation Xrotation
								End Site
								{
									OFFSET 0.000000 0.000000 0.000000
								}
							}
						}
					}
				}
				JOINT RightUpArm_virtual
				{
					OFFSET -0.000000 -0.000000 -0.000000
					CHANNELS 3 Zrotation Yrotation Xrotation
					JOINT RightUpArm
					{
						OFFSET -1.248820 -0.000000 -0.000000
						CHANNELS 3 Zrotation Yrotation Xrotation
						JOINT RightForeArm
						{
							OFFSET -2.597580 -0.000000 -0.000000
							CHANNELS 3 Zrotation Yrotation Xrotation
							JOINT RightHand
							{
								OFFSET -2.455420 -0.000000 -0.000000
								CHANNELS 3 Zrotation Yrotation Xrotation
								End Site
								{
									OFFSET 0.000000 0.000000 0.000000
								}
							}
						}
					}
				}
			}
		}
	}
	JOINT LeftUpLeg
	{
		OFFSET 1.271939 0.000000 0.000000
		CHANNELS 3 Zrotation Yrotation Xrotation
		JOINT LeftLowLeg
		{
			OFFSET 0.000000 -4.342910 0.000000
			CHANNELS 3 Zrotation Yrotation Xrotation
			JOINT LeftFoot
			{
				OFFSET 0.000000 -4.487670 0.000000
				CHANNELS 3 Zrotation Yrotation Xrotation
				JOINT LeftToeBase
				{
					OFFSET 0.000000 0.000000 1.515070
					CHANNELS 3 Zrotation Yrotation Xrotation
					End Site
					{
						OFFSET 0.000000 0.000000 0.000000
					}
				}
			}
		}
	}
	JOINT RightUpLeg
	{
		OFFSET -1.271939 0.000000 0.000000
		CHANNELS 3 Zrotation Yrotation Xrotation
		JOINT RightLowLeg
		{
			OFFSET 0.000000 -4.342910 0.000000
			CHANNELS 3 Zrotation Yrotation Xrotation
			JOINT RightFoot
			{
				OFFSET 0.000000 -4.487670 0.000000
				CHANNELS 3 Zrotation Yrotation Xrotation
				JOINT RightToeBase
				{
					OFFSET 0.000000 0.000000 1.515070
					CHANNELS 3 Zrotation Yrotation Xrotation
					End Site
					{
						OFFSET 0.000000 0.000000 0.000000
					}
				}
			}
		}
	}
}
MOTION
Frames: 13
Frame Time: 0.041667
-13.546103 9.300471 53.582798 -173.528376 15.378502 178.236667 6.648557 -0.270034 -21.359849 -5.689300 -0.178483 37.551712 0.000000 0.000000 0.000000 -1.487479 4.376871 -13.953037 2.346008 7.135316 -71.128527 -26.108700 -2.926160 -7.595170 -36.239700 -0.357722 31.003901 0.000000 -31.321800 0.000000 11.141300 6.524910 2.450750 32.912800 2.134120 2.134540 38.057999 8.572660 19.441000 0.000000 13.932600 0.000000 0.029514 30.833099 -20.400400 9.520425 18.480151 10.188964 0.000000 0.000000 0.786759 -5.342021 4.971429 9.741653 0.000000 0.000000 -13.819370 6.574820 9.713578 5.799392 0.000000 0.000000 6.681460 15.896975 -23.351062 10.047313 0.000000 0.000000 -12.133980 
-13.534979 9.299023 53.574244 -173.524469 15.238127 178.155079 6.358308 -1.233252 -21.603955 -4.111244 0.037765 37.811808 0.000000 0.000000 0.000000 -3.276227 4.084376 -14.039478 3.237372 6.297444 -70.920294 -27.072500 -3.273980 -7.849220 -35.989799 -0.558010 31.060400 0.000000 -31.965300 0.000000 11.444800 6.488670 2.375110 31.319700 1.011740 -1.325490 39.351299 8.191930 22.798500 0.000000 13.477500 0.000000 -0.218646 30.639601 -19.975800 9.590084 18.213144 10.285084 0.000000 0.000000 0.811794 -5.436775 5.020919 9.666747 0.000000 0.000000 -13.784270 6.677324 9.675133 5.917674 0.000000 0.000000 6.763090 15.864354 -23.486787 9.901697 0.000000 0.000000 -12.123040 
-13.525188 9.298618 53.567087 -173.499924 15.180117 178.173583 6.362813 -1.301184 -21.734890 -3.890660 0.092447 37.873757 0.000000 0.000000 0.000000 -3.459482 4.041423 -14.076491 3.375607 6.177201 -70.779676 -27.204399 -3.367360 -7.952560 -35.903099 -0.926761 30.876301 0.000000 -32.572201 0.000000 11.887500 6.390930 1.481320 31.162701 1.084840 -1.391200 39.290401 8.282770 22.634701 0.000000 13.706000 0.000000 -0.277257 30.762300 -19.796301 9.646339 18.004758 10.320497 0.000000 0.000000 0.784280 -5.513731 5.097163 9.632392 0.000000 0.000000 -13.740010 6.758732 9.584909 5.915925 0.000000 0.000000 6.852640 15.747272 -23.521396 9.860321 0.000000 0.000000 -12.222530 
-13.514673 9.296993 53.555624 -173.469772 15.152158 178.242789 6.404290 -1.263397 -21.841883 -3.764156 0.135261 37.708723 0.000000 0.000000 0.000000 -3.472341 3.998451 -13.876578 3.424060 6.118353 -70.722492 -27.325001 -3.485130 -8.030170 -35.786400 -1.152770 30.872200 0.000000 -33.060501 0.000000 12.502500 6.279970 1.026650 31.113800 1.005640 -1.368940 39.185600 8.385930 22.544701 0.000000 13.963000 0.000000 -0.380214 30.791901 -19.653601 9.686791 17.725760 10.376475 0.000000 0.000000 0.679418 -5.531374 5.237750 9.558986 0.000000 0.000000 -13.622790 6.818311 9.380768 5.883847 0.000000 0.000000 6.953750 15.597757 -23.414376 9.816617 0.000000 0.000000 -12.440660 
-13.504149 9.294707 53.548649 -173.461867 15.154142 178.348353 6.487613 -1.164941 -21.961475 -3.854648 0.108000 37.577078 0.000000 0.000000 0.000000 -3.432558 3.999988 -13.791659 3.450949 6.113012 -70.587809 -27.326799 -3.517600 -8.028950 -35.712200 -1.480260 30.794300 0.000000 -33.424400 0.000000 12.867500 6.127430 -0.356937 31.158001 1.042940 -1.308650 39.097000 8.548090 22.344101 0.000000 14.204900 0.000000 -0.495543 30.890301 -19.480301 9.722854 17.582450 10.373558 0.000000 0.000000 0.601169 -5.777081 5.251831 9.516077 0.000000 0.000000 -13.677000 6.886252 9.447623 5.703290 0.000000 0.000000 7.234570 15.560329 -23.461130 9.613483 0.000000 0.000000 -12.686940 
-13.492108 9.292283 53.540297 -173.458651 15.199420 178.481821 6.572866 -1.002638 -22.059955 -3.994187 0.097155 37.397162 0.000000 0.000000 0.000000 -3.288875 4.021842 -13.713637 3.428389 6.161745 -70.465403 -27.280500 -3.614710 -8.152760 -35.658901 -1.599260 30.770800 0.000000 -33.727001 0.000000 13.017300 6.023490 -0.416296 31.226500 1.046870 -1.422370 39.056099 8.526750 22.187201 0.000000 14.489900 0.000000 -0.535030 30.931499 -19.268299 9.764460 17.471272 10.401465 0.000000 0.000000 0.446848 -5.893993 5.255477 9.490473 0.000000 0.000000 -13.611760 6.952050 9.561851 5.496626 0.000000 0.000000 7.528360 15.543804 -23.480330 9.385308 0.000000 0.000000 -12.959080 
-13.477773 9.289785 53.534978 -173.427862 15.365869 178.595027 6.654582 -0.864815 -22.091749 -4.059870 0.095055 37.219062 0.000000 0.000000 0.000000 -3.245610 4.060396 -13.613749 3.462026 6.196788 -70.350802 -27.265301 -3.708450 -8.180980 -35.594501 -1.724820 30.738100 0.000000 -33.921799 0.000000 13.171500 5.879890 0.629089 31.247200 1.087370 -1.339740 39.014599 8.662490 21.914301 0.000000 14.761400 0.000000 -0.578225 31.156000 -19.449100 9.844444 17.336743 10.483590 0.000000 0.000000 0.277576 -6.120374 5.374090 9.458164 0.000000 0.000000 -13.546210 7.046770 9.687046 5.248237 0.000000 0.000000 7.914280 15.504877 -23.401426 9.198013 0.000000 0.000000 -13.170590 
-13.462023 9.287886 53.525791 -173.423146 15.432533 178.684245 6.716807 -0.757496 -22.118935 -4.179886 0.063549 37.044128 0.000000 0.000000 0.000000 -2.935453 4.023148 -13.590650 3.411084 6.221452 -70.167280 -27.174101 -3.837850 -8.306420 -35.596001 -1.689350 30.795799 0.000000 -34.039902 0.000000 13.274300 5.794820 0.727874 31.313400 1.072020 -1.335050 38.967602 8.705820 21.700001 0.000000 15.088900 0.000000 -0.684545 31.308701 -19.051201 9.900488 17.145394 10.572383 0.000000 0.000000 0.101847 -6.299031 5.519565 9.488247 0.000000 0.000000 -13.519330 7.117967 9.700887 5.102186 0.000000 0.000000 8.176910 15.495735 -23.327875 9.038407 0.000000 0.000000 -13.240400 
-13.444061 9.286821 53.518849 -173.414879 15.668019 178.748083 6.807258 -0.563875 -22.121527 -4.361776 0.052959 36.956317 0.000000 0.000000 0.000000 -2.956716 4.162443 -13.524119 3.579824 6.310137 -69.899965 -27.058701 -3.964880 -8.413330 -35.573700 -1.646330 30.832899 0.000000 -34.082802 0.000000 13.244100 5.674560 -0.468066 31.371000 1.108070 -1.302670 38.962200 8.783810 21.456699 0.000000 15.447400 0.000000 -0.811097 31.471600 -19.168100 10.011796 17.214608 10.766791 0.000000 0.000000 -0.143926 -6.465667 5.617544 9.590511 0.000000 0.000000 -13.412810 7.218072 9.937474 4.975635 0.000000 0.000000 8.428390 15.535021 -23.299821 8.901702 0.000000 0.000000 -13.203100 
-13.423040 9.286820 53.506869 -173.411348 15.777227 178.690951 6.883112 -0.435375 -22.112073 -4.584897 -0.004281 36.926102 0.000000 0.000000 0.000000 -2.662765 4.185611 -13.387690 3.594496 6.365032 -69.518069 -26.870300 -4.054730 -8.251740 -35.591999 -1.765010 30.928699 0.000000 -33.996498 0.000000 13.355700 5.665820 0.607145 31.385200 1.134930 -1.264510 39.044701 8.784660 21.138300 0.000000 15.783300 0.000000 -0.854777 31.613600 -19.208300 10.210351 17.415370 11.119883 0.000000 0.000000 -0.452198 -6.663997 5.478374 9.789523 0.000000 0.000000 -13.280630 7.346059 10.037245 5.085455 0.000000 0.000000 8.520960 15.508032 -23.293554 8.832035 0.000000 0.000000 -13.166960 
-13.400974 9.286311 53.497498 -173.419220 15.965962 178.709603 6.943640 -0.317689 -22.104758 -4.734007 -0.031543 36.868907 0.000000 0.000000 0.000000 -2.389631 4.170390 -13.172654 3.527393 6.390077 -69.163280 -26.723900 -4.241820 -8.287580 -35.606800 -1.604320 30.990601 0.000000 -33.850101 0.000000 13.214600 5.717770 0.610553 31.405300 1.156970 -1.253500 39.073502 8.786800 20.844700 0.000000 16.095699 0.000000 -0.876397 31.836800 -19.104900 10.375941 17.639951 11.358694 0.000000 0.000000 -0.672610 -6.882472 5.397422 9.947812 0.000000 0.000000 -13.282170 7.498344 10.497086 5.101519 0.000000 0.000000 8.638300 15.614046 -23.513900 8.651355 0.000000 0.000000 -13.037460 
-13.375747 9.286098 53.488180 -173.420095 15.950408 178.677697 6.955122 -0.402642 -22.124175 -4.849815 -0.137076 36.925424 0.000000 0.000000 0.000000 -2.289558 4.206029 -13.030166 3.525108 6.400148 -68.638445 -26.552200 -4.375630 -8.311240 -35.646301 -1.486370 31.122101 0.000000 -33.690899 0.000000 13.112900 5.898920 -0.344959 31.409201 1.176480 -1.186750 39.084099 8.862350 20.597700 0.000000 16.436899 0.000000 -0.885280 32.009800 -19.240400 10.586412 17.777369 11.555006 0.000000 0.000000 -0.803351 -7.124122 5.189968 10.091081 0.000000 0.000000 -13.287840 7.635583 10.464203 5.194687 0.000000 0.000000 8.685570 15.628128 -23.522623 8.601463 0.000000 0.000000 -12.833370 
-13.349106 9.286183 53.481989 -173.386768 16.162267 178.643628 6.990940 -0.414343 -22.083907 -4.860230 -0.171702 36.998493 0.000000 0.000000 0.000000 -2.246003 4.220774 -12.723975 3.533496 6.380533 -68.219443 -26.457300 -4.508370 -8.251210 -35.646801 -1.410800 31.262899 0.000000 -33.425900 0.000000 12.935600 5.981280 0.310814 31.405800 1.227690 -1.150480 39.032501 8.935710 20.429001 0.000000 16.722000 0.000000 -1.018470 32.171398 -18.998600 10.845796 18.050835 11.824035 0.000000 0.000000 -0.948026 -7.299331 5.091521 10.217818 0.000000 0.000000 -13.285260 7.823682 10.738940 5.242791 0.000000 0.000000 8.805060 15.769773 -23.567017 8.537948 0.000000 0.000000 -12.552900 
